G04 EasyEDA Pro v1.9.28, 2023-01-14 19:19:00*
G04 Gerber Generator version 0.3*%TF.GenerationSoftware,KiCad,Pcbnew,8.0.1*%
%TF.CreationDate,2024-10-05T18:53:12+08:00*%
%TF.ProjectId,TPS54331_EVA_Board,54505335-3433-4333-915f-4556415f426f,rev?*%
%TF.SameCoordinates,Original*%
%TF.FileFunction,Copper,L1,Top*%
%TF.FilePolarity,Positive*%
%FSLAX46Y46*%
G04 Gerber Fmt 4.6, Leading zero omitted, Abs format (unit mm)*
G04 Created by KiCad (PCBNEW 8.0.1) date 2024-10-05 18:53:12*
%MOMM*%
%LPD*%
G01*
G04 APERTURE LIST*
G04 Aperture macros list*
%AMRoundRect*
0 Rectangle with rounded corners*
0 $1 Rounding radius*
0 $2 $3 $4 $5 $6 $7 $8 $9 X,Y pos of 4 corners*
0 Add a 4 corners polygon primitive as box body*
4,1,4,$2,$3,$4,$5,$6,$7,$8,$9,$2,$3,0*
0 Add four circle primitives for the rounded corners*
1,1,$1+$1,$2,$3*
1,1,$1+$1,$4,$5*
1,1,$1+$1,$6,$7*
1,1,$1+$1,$8,$9*
0 Add four rect primitives between the rounded corners*
20,1,$1+$1,$2,$3,$4,$5,0*
20,1,$1+$1,$4,$5,$6,$7,0*
20,1,$1+$1,$6,$7,$8,$9,0*
20,1,$1+$1,$8,$9,$2,$3,0*%
G04 Aperture macros list end*
%TA.AperFunction,SMDPad,CuDef*%
%ADD10RoundRect,0.225000X-0.250000X0.225000X-0.250000X-0.225000X0.250000X-0.225000X0.250000X0.225000X0*%
%TD*%
%TA.AperFunction,SMDPad,CuDef*%
%ADD11R,1.550000X2.200000*%
%TD*%
%TA.AperFunction,SMDPad,CuDef*%
%ADD12R,1.400000X4.200000*%
%TD*%
%TA.AperFunction,SMDPad,CuDef*%
%ADD13RoundRect,0.250000X-0.650000X0.325000X-0.650000X-0.325000X0.650000X-0.325000X0.650000X0.325000X0*%
%TD*%
%TA.AperFunction,SMDPad,CuDef*%
%ADD14RoundRect,0.225000X0.250000X-0.225000X0.250000X0.225000X-0.250000X0.225000X-0.250000X-0.225000X0*%
%TD*%
%TA.AperFunction,SMDPad,CuDef*%
%ADD15R,2.200000X1.550000*%
%TD*%
%TA.AperFunction,SMDPad,CuDef*%
%ADD16RoundRect,0.250000X0.650000X-0.325000X0.650000X0.325000X-0.650000X0.325000X-0.650000X-0.325000X0*%
%TD*%
%TA.AperFunction,SMDPad,CuDef*%
%ADD17RoundRect,0.225000X-0.225000X-0.250000X0.225000X-0.250000X0.225000X0.250000X-0.225000X0.250000X0*%
%TD*%
%TA.AperFunction,SMDPad,CuDef*%
%ADD18RoundRect,0.750000X-0.750000X-1.750000X0.750000X-1.750000X0.750000X1.750000X-0.750000X1.750000X0*%
%TD*%
%TA.AperFunction,ComponentPad*%
%ADD19O,1.500000X2.500000*%
%TD*%
%TA.AperFunction,SMDPad,CuDef*%
%ADD20R,1.525000X0.650000*%
%TD*%
%TA.AperFunction,SMDPad,CuDef*%
%ADD21RoundRect,0.200000X-0.200000X-0.275000X0.200000X-0.275000X0.200000X0.275000X-0.200000X0.275000X0*%
%TD*%
%TA.AperFunction,SMDPad,CuDef*%
%ADD22RoundRect,0.200000X0.275000X-0.200000X0.275000X0.200000X-0.275000X0.200000X-0.275000X-0.200000X0*%
%TD*%
%TA.AperFunction,SMDPad,CuDef*%
%ADD23RoundRect,0.218750X0.218750X0.256250X-0.218750X0.256250X-0.218750X-0.256250X0.218750X-0.256250X0*%
%TD*%
%TA.AperFunction,SMDPad,CuDef*%
%ADD24RoundRect,0.200000X-0.275000X0.200000X-0.275000X-0.200000X0.275000X-0.200000X0.275000X0.200000X0*%
%TD*%
%TA.AperFunction,ViaPad*%
%ADD25C,0.450000*%
%TD*%
%TA.AperFunction,Conductor*%
%ADD26C,0.300000*%
%TD*%
G04 APERTURE END LIST*
D10*
%TO.P,C1,1*%
%TO.N,Net-(IC2-COMP)*%
X114050000Y-84500000D03*
%TO.P,C1,2*%
%TO.N,Net-(C1-Pad2)*%
X114050000Y-86050000D03*
%TD*%
D11*
%TO.P,D1,1,K*%
%TO.N,Net-(D1-K)*%
X97500000Y-83850000D03*
%TO.P,D1,2,A*%
%TO.N,Net-(D1-A)*%
X97500000Y-79750000D03*
%TD*%
D12*
%TO.P,L2,1,1*%
%TO.N,Net-(D3-K)*%
X115750000Y-77050000D03*
%TO.P,L2,2,2*%
%TO.N,+5V*%
X119450000Y-77050000D03*
%TD*%
D13*
%TO.P,C12,1*%
%TO.N,Net-(D1-K)*%
X102600000Y-83000000D03*
%TO.P,C12,2*%
%TO.N,GND*%
X102600000Y-85950000D03*
%TD*%
D10*
%TO.P,C2,1*%
%TO.N,Net-(IC2-COMP)*%
X115650000Y-84500000D03*
%TO.P,C2,2*%
%TO.N,GND*%
X115650000Y-86050000D03*
%TD*%
D14*
%TO.P,C11,1*%
%TO.N,GND*%
X107650000Y-86050000D03*
%TO.P,C11,2*%
%TO.N,Net-(IC2-SS)*%
X107650000Y-84500000D03*
%TD*%
D15*
%TO.P,D3,1,K*%
%TO.N,Net-(D3-K)*%
X115550000Y-81750000D03*
%TO.P,D3,2,A*%
%TO.N,GND*%
X119650000Y-81750000D03*
%TD*%
D13*
%TO.P,C14,1*%
%TO.N,Net-(D1-K)*%
X100300000Y-83000000D03*
%TO.P,C14,2*%
%TO.N,GND*%
X100300000Y-85950000D03*
%TD*%
D16*
%TO.P,C3,1*%
%TO.N,Net-(D1-K)*%
X102600000Y-81355000D03*
%TO.P,C3,2*%
%TO.N,GND*%
X102600000Y-78405000D03*
%TD*%
D17*
%TO.P,C10,1*%
%TO.N,Net-(IC2-BOOT)*%
X108775000Y-75100000D03*
%TO.P,C10,2*%
%TO.N,Net-(D3-K)*%
X110325000Y-75100000D03*
%TD*%
D16*
%TO.P,C13,1*%
%TO.N,Net-(D1-K)*%
X100300000Y-81355000D03*
%TO.P,C13,2*%
%TO.N,GND*%
X100300000Y-78405000D03*
%TD*%
D18*
%TO.P,J1,1,Pin_1*%
%TO.N,VCC*%
X93100000Y-73000000D03*
%TO.P,J1,2,Pin_2*%
%TO.N,GND*%
X93100000Y-85900000D03*
%TD*%
D19*
%TO.P,S1,1,O*%
%TO.N,unconnected-(S1-O-Pad1)*%
X102490000Y-72850000D03*
%TO.P,S1,2,P*%
%TO.N,Net-(D1-A)*%
X99950000Y-72850000D03*
%TO.P,S1,3,S*%
%TO.N,VCC*%
X97410000Y-72850000D03*
%TD*%
D13*
%TO.P,C17,1*%
%TO.N,+5V*%
X125850000Y-81600000D03*
%TO.P,C17,2*%
%TO.N,GND*%
X125850000Y-84550000D03*
%TD*%
D20*
%TO.P,IC2,1,BOOT*%
%TO.N,Net-(IC2-BOOT)*%
X106788000Y-77145000D03*
%TO.P,IC2,2,VIN*%
%TO.N,Net-(D1-K)*%
X106788000Y-78415000D03*
%TO.P,IC2,3,EN*%
%TO.N,Net-(IC2-EN)*%
X106788000Y-79685000D03*
%TO.P,IC2,4,SS*%
%TO.N,Net-(IC2-SS)*%
X106788000Y-80955000D03*
%TO.P,IC2,5,VSENSE*%
%TO.N,Net-(IC2-VSENSE)*%
X112212000Y-80955000D03*
%TO.P,IC2,6,COMP*%
%TO.N,Net-(IC2-COMP)*%
X112212000Y-79685000D03*
%TO.P,IC2,7,GND*%
%TO.N,GND*%
X112212000Y-78415000D03*
%TO.P,IC2,8,PH*%
%TO.N,Net-(D3-K)*%
X112212000Y-77145000D03*
%TD*%
D21*
%TO.P,R6,1*%
%TO.N,+5V*%
X122387500Y-86850000D03*
%TO.P,R6,2*%
%TO.N,Net-(D2-A)*%
X124037500Y-86850000D03*
%TD*%
%TO.P,R3,1*%
%TO.N,Net-(D1-K)*%
X104425000Y-84530000D03*
%TO.P,R3,2*%
%TO.N,Net-(IC2-EN)*%
X106075000Y-84530000D03*
%TD*%
D16*
%TO.P,C16,1*%
%TO.N,+5V*%
X123550000Y-79950000D03*
%TO.P,C16,2*%
%TO.N,GND*%
X123550000Y-77000000D03*
%TD*%
D22*
%TO.P,R5,1*%
%TO.N,Net-(C1-Pad2)*%
X112450000Y-86100000D03*
%TO.P,R5,2*%
%TO.N,GND*%
X112450000Y-84450000D03*
%TD*%
D16*
%TO.P,C18,1*%
%TO.N,+5V*%
X125850000Y-79950000D03*
%TO.P,C18,2*%
%TO.N,GND*%
X125850000Y-77000000D03*
%TD*%
D21*
%TO.P,R4,1*%
%TO.N,Net-(IC2-EN)*%
X104425000Y-86030000D03*
%TO.P,R4,2*%
%TO.N,GND*%
X106075000Y-86030000D03*
%TD*%
D18*
%TO.P,J2,1,Pin_1*%
%TO.N,+5V*%
X129600000Y-73000000D03*
%TO.P,J2,2,Pin_2*%
%TO.N,GND*%
X129600000Y-85900000D03*
%TD*%
D13*
%TO.P,C15,1*%
%TO.N,+5V*%
X123550000Y-81600000D03*
%TO.P,C15,2*%
%TO.N,GND*%
X123550000Y-84550000D03*
%TD*%
D22*
%TO.P,R1,1*%
%TO.N,+5V*%
X109250000Y-86100000D03*
%TO.P,R1,2*%
%TO.N,Net-(IC2-VSENSE)*%
X109250000Y-84450000D03*
%TD*%
D23*
%TO.P,D2,1,K*%
%TO.N,GND*%
X126975000Y-86850000D03*
%TO.P,D2,2,A*%
%TO.N,Net-(D2-A)*%
X125400000Y-86850000D03*
%TD*%
D24*
%TO.P,R2,1*%
%TO.N,Net-(IC2-VSENSE)*%
X110850000Y-84450000D03*
%TO.P,R2,2*%
%TO.N,GND*%
X110850000Y-86100000D03*
%TD*%
D25*
%TO.N,GND*%
X130650000Y-86650000D03*
X92100000Y-84650000D03*
X130150000Y-86650000D03*
X93100000Y-84150000D03*
X130650000Y-84650000D03*
X130650000Y-84150000D03*
X110250000Y-78550000D03*
X124750000Y-74750000D03*
X128650000Y-87650000D03*
X109750000Y-80050000D03*
X109750000Y-79550000D03*
X93600000Y-86650000D03*
X119850000Y-84550000D03*
X119850000Y-85900000D03*
X92600000Y-86150000D03*
X130650000Y-85150000D03*
X124250000Y-74750000D03*
X128650000Y-84650000D03*
X130150000Y-86150000D03*
X129650000Y-87650000D03*
X110250000Y-79050000D03*
X130150000Y-87150000D03*
X109750000Y-79050000D03*
X92100000Y-87150000D03*
X93100000Y-85650000D03*
X119150000Y-85900000D03*
X92600000Y-84150000D03*
X129650000Y-87150000D03*
X130150000Y-87650000D03*
X92600000Y-87650000D03*
X94100000Y-87650000D03*
X108750000Y-78050000D03*
X119850000Y-85250000D03*
X92600000Y-85650000D03*
X129150000Y-85650000D03*
X129650000Y-84650000D03*
X128650000Y-87150000D03*
X93100000Y-87650000D03*
X130150000Y-85650000D03*
X129150000Y-84650000D03*
X92600000Y-85150000D03*
X128650000Y-86650000D03*
X129150000Y-85150000D03*
X94100000Y-85150000D03*
X109750000Y-78050000D03*
X93600000Y-85150000D03*
X125750000Y-75250000D03*
X125250000Y-74250000D03*
X93100000Y-86650000D03*
X130650000Y-86150000D03*
X125250000Y-74750000D03*
X108750000Y-80050000D03*
X130650000Y-87150000D03*
X93600000Y-86150000D03*
X119150000Y-85250000D03*
X129650000Y-84150000D03*
X125250000Y-75250000D03*
X108750000Y-79550000D03*
X109250000Y-78550000D03*
X109250000Y-80050000D03*
X93600000Y-87150000D03*
X118450000Y-85900000D03*
X110250000Y-80050000D03*
X124750000Y-75250000D03*
X119150000Y-84550000D03*
X124750000Y-73750000D03*
X92600000Y-86650000D03*
X92100000Y-85650000D03*
X130150000Y-84150000D03*
X124250000Y-74250000D03*
X93100000Y-87150000D03*
X125750000Y-74250000D03*
X129150000Y-86650000D03*
X93600000Y-87650000D03*
X125250000Y-73750000D03*
X108750000Y-78550000D03*
X123750000Y-73750000D03*
X125750000Y-73750000D03*
X109750000Y-78550000D03*
X92600000Y-87150000D03*
X92100000Y-86650000D03*
X94100000Y-84650000D03*
X124250000Y-75250000D03*
X93600000Y-84150000D03*
X93600000Y-84650000D03*
X130650000Y-87650000D03*
X123750000Y-74750000D03*
X118450000Y-84550000D03*
X94100000Y-86650000D03*
X94100000Y-84150000D03*
X129650000Y-86650000D03*
X124250000Y-73750000D03*
X109250000Y-78050000D03*
X92100000Y-86150000D03*
X130150000Y-85150000D03*
X92600000Y-84650000D03*
X93100000Y-85150000D03*
X94100000Y-86150000D03*
X123750000Y-74250000D03*
X93600000Y-85650000D03*
X118450000Y-85250000D03*
X94100000Y-85650000D03*
X92100000Y-85150000D03*
X128650000Y-86150000D03*
X130150000Y-84650000D03*
X129650000Y-86150000D03*
X92100000Y-87650000D03*
X109250000Y-79050000D03*
X110250000Y-79550000D03*
X93100000Y-86150000D03*
X125750000Y-74750000D03*
X129650000Y-85650000D03*
X124750000Y-74250000D03*
X130650000Y-85650000D03*
X93100000Y-84650000D03*
X129150000Y-84150000D03*
X110250000Y-78050000D03*
X128650000Y-84150000D03*
X94100000Y-87150000D03*
X129150000Y-87150000D03*
X129150000Y-87650000D03*
X128650000Y-85150000D03*
X108750000Y-79050000D03*
X129150000Y-86150000D03*
X128650000Y-85650000D03*
X123750000Y-75250000D03*
X109250000Y-79550000D03*
X92100000Y-84150000D03*
X129650000Y-85150000D03*
%TO.N,+5V*%
X128600000Y-72800000D03*
X128600000Y-73300000D03*
X128600000Y-73800000D03*
X130100000Y-74800000D03*
X129100000Y-73800000D03*
X130100000Y-71800000D03*
X130600000Y-74800000D03*
X130100000Y-71300000D03*
X129100000Y-71800000D03*
X129600000Y-73300000D03*
X129600000Y-71300000D03*
X130100000Y-73800000D03*
X130600000Y-72800000D03*
X130100000Y-74300000D03*
X129600000Y-74800000D03*
X129600000Y-72800000D03*
X129100000Y-74800000D03*
X130100000Y-72800000D03*
X128600000Y-74800000D03*
X129100000Y-72300000D03*
X130600000Y-71300000D03*
X129100000Y-71300000D03*
X129100000Y-73300000D03*
X129100000Y-72800000D03*
X130600000Y-72300000D03*
X128600000Y-71300000D03*
X130100000Y-72300000D03*
X130600000Y-74300000D03*
X128600000Y-74300000D03*
X128600000Y-72300000D03*
X129600000Y-73800000D03*
X130600000Y-73300000D03*
X130600000Y-71800000D03*
X129600000Y-74300000D03*
X129600000Y-72300000D03*
X129100000Y-74300000D03*
X130100000Y-73300000D03*
X130600000Y-73800000D03*
X128600000Y-71800000D03*
X129600000Y-71800000D03*
%TO.N,VCC*%
X93600000Y-71800000D03*
X94100000Y-74300000D03*
X94100000Y-72800000D03*
X92600000Y-71300000D03*
X94100000Y-71800000D03*
X94100000Y-73300000D03*
X92100000Y-72800000D03*
X93100000Y-73800000D03*
X93100000Y-71300000D03*
X92100000Y-71300000D03*
X92600000Y-71800000D03*
X93600000Y-73300000D03*
X92100000Y-74300000D03*
X92600000Y-74300000D03*
X92100000Y-74800000D03*
X94100000Y-74800000D03*
X93100000Y-74300000D03*
X92600000Y-74800000D03*
X93600000Y-72800000D03*
X94100000Y-72300000D03*
X92600000Y-73300000D03*
X92100000Y-71800000D03*
X93600000Y-73800000D03*
X93100000Y-73300000D03*
X93100000Y-72300000D03*
X93100000Y-71800000D03*
X92600000Y-72800000D03*
X94100000Y-73800000D03*
X92600000Y-72300000D03*
X93600000Y-72300000D03*
X93100000Y-74800000D03*
X92100000Y-72300000D03*
X92100000Y-73800000D03*
X92600000Y-73800000D03*
X93600000Y-74300000D03*
X93100000Y-72800000D03*
X93600000Y-74800000D03*
X92100000Y-73300000D03*
X94100000Y-71300000D03*
X93600000Y-71300000D03*
%TD*%
D26*
%TO.N,Net-(IC2-EN)*%
X105450000Y-80100000D02*
X105450000Y-82750000D01*
X105450000Y-82750000D02*
X106075000Y-83375000D01*
X105865000Y-79685000D02*
X105450000Y-80100000D01*
X106075000Y-83375000D02*
X106075000Y-84530000D01*
X106788000Y-79685000D02*
X105865000Y-79685000D01*
%TO.N,Net-(IC2-COMP)*%
X113285000Y-79685000D02*
X113700000Y-80100000D01*
X112212000Y-79685000D02*
X113285000Y-79685000D01*
X114050000Y-83850000D02*
X114050000Y-84500000D01*
X113700000Y-83500000D02*
X114050000Y-83850000D01*
X114050000Y-84500000D02*
X115650000Y-84500000D01*
X113700000Y-80100000D02*
X113700000Y-83500000D01*
%TO.N,Net-(C1-Pad2)*%
X114000000Y-86100000D02*
X114050000Y-86050000D01*
X112450000Y-86100000D02*
X114000000Y-86100000D01*
%TO.N,Net-(D3-K)*%
X110325000Y-75100000D02*
X111850000Y-75100000D01*
X111850000Y-75100000D02*
X112212000Y-75462000D01*
X112212000Y-75462000D02*
X112212000Y-77145000D01*
%TO.N,Net-(IC2-BOOT)*%
X108775000Y-75100000D02*
X107200000Y-75100000D01*
X106788000Y-75512000D02*
X106788000Y-77145000D01*
X107200000Y-75100000D02*
X106788000Y-75512000D01*
%TO.N,Net-(IC2-SS)*%
X106788000Y-82588000D02*
X107650000Y-83450000D01*
X107650000Y-83450000D02*
X107650000Y-84500000D01*
X106788000Y-80955000D02*
X106788000Y-82588000D01*
%TO.N,+5V*%
X109250000Y-87150000D02*
X109500000Y-87400000D01*
X120600000Y-87400000D02*
X121450000Y-86550000D01*
X121450000Y-86550000D02*
X121450000Y-81950000D01*
X109250000Y-86100000D02*
X109250000Y-87150000D01*
X109500000Y-87400000D02*
X120600000Y-87400000D01*
X122387500Y-86850000D02*
X121750000Y-86850000D01*
X121800000Y-81600000D02*
X123550000Y-81600000D01*
X121750000Y-86850000D02*
X121450000Y-86550000D01*
X121450000Y-81950000D02*
X121800000Y-81600000D01*
%TO.N,Net-(IC2-EN)*%
X104575000Y-86030000D02*
X106075000Y-84530000D01*
X104425000Y-86030000D02*
X104575000Y-86030000D01*
%TO.N,Net-(IC2-VSENSE)*%
X112212000Y-80955000D02*
X112212000Y-82138000D01*
X112212000Y-82138000D02*
X110850000Y-83500000D01*
X110850000Y-83500000D02*
X110850000Y-84450000D01*
X109250000Y-84450000D02*
X110850000Y-84450000D01*
%TO.N,Net-(D2-A)*%
X124037500Y-86850000D02*
X125400000Y-86850000D01*
%TD*%
%TA.AperFunction,Conductor*%
%TO.N,+5V*%
G36*
X130877004Y-70257608D02*
G01*
X130937334Y-70257607D01*
X130948417Y-70258228D01*
X131042960Y-70268881D01*
X131064573Y-70273814D01*
X131149092Y-70303388D01*
X131169066Y-70313007D01*
X131244881Y-70360644D01*
X131262214Y-70374466D01*
X131321004Y-70433256D01*
X131348781Y-70487773D01*
X131350000Y-70503260D01*
X131350000Y-82701000D01*
X131331093Y-82759191D01*
X131281593Y-82795155D01*
X131251000Y-82800000D01*
X122400000Y-82800000D01*
X122400000Y-78500000D01*
X127650000Y-78500000D01*
X127650000Y-70356607D01*
X127668907Y-70298416D01*
X127718407Y-70262452D01*
X127749000Y-70257607D01*
X130877000Y-70257607D01*
X130877004Y-70257608D01*
G37*
%TD.AperFunction*%
%TD*%
%TA.AperFunction,Conductor*%
%TO.N,Net-(D1-K)*%
G36*
X107609191Y-78018907D02*
G01*
X107645155Y-78068407D01*
X107650000Y-78099000D01*
X107650000Y-78899039D01*
X107631093Y-78957230D01*
X107581593Y-78993194D01*
X107549059Y-78998020D01*
X105100000Y-78950000D01*
X105100000Y-80043569D01*
X105099500Y-80051200D01*
X105099500Y-82798800D01*
X105100000Y-82806430D01*
X105100000Y-83652346D01*
X105081093Y-83710537D01*
X105031593Y-83746501D01*
X105002356Y-83751337D01*
X103750000Y-83768493D01*
X101450000Y-83800000D01*
X101450000Y-79849000D01*
X101468907Y-79790809D01*
X101518407Y-79754845D01*
X101549000Y-79750000D01*
X103799999Y-79750000D01*
X103800000Y-79750000D01*
X103800000Y-78099000D01*
X103818907Y-78040809D01*
X103868407Y-78004845D01*
X103899000Y-78000000D01*
X107551000Y-78000000D01*
X107609191Y-78018907D01*
G37*
%TD.AperFunction*%
%TD*%
%TA.AperFunction,Conductor*%
%TO.N,Net-(D1-K)*%
G36*
X101450000Y-83800000D02*
G01*
X103750000Y-83768493D01*
X103750000Y-83800000D01*
X104951000Y-83800000D01*
X105009191Y-83818907D01*
X105045155Y-83868407D01*
X105050000Y-83899000D01*
X105050000Y-85018310D01*
X105031093Y-85076501D01*
X105021004Y-85088314D01*
X104988314Y-85121004D01*
X104933797Y-85148781D01*
X104918310Y-85150000D01*
X96199000Y-85150000D01*
X96140809Y-85131093D01*
X96104845Y-85081593D01*
X96100000Y-85051000D01*
X96100000Y-81454500D01*
X96118907Y-81396309D01*
X96168407Y-81360345D01*
X96199000Y-81355500D01*
X98800993Y-81355500D01*
X98801000Y-81355500D01*
X98833144Y-81352970D01*
X98844200Y-81351218D01*
X98859686Y-81350000D01*
X99149999Y-81350000D01*
X99150000Y-81350000D01*
X99150000Y-80599000D01*
X99168907Y-80540809D01*
X99218407Y-80504845D01*
X99249000Y-80500000D01*
X101449999Y-80500000D01*
X101450000Y-80500000D01*
X101450000Y-83800000D01*
G37*
%TD.AperFunction*%
%TD*%
%TA.AperFunction,Conductor*%
%TO.N,VCC*%
G36*
X98659191Y-70368907D02*
G01*
X98695155Y-70418407D01*
X98700000Y-70449000D01*
X98700000Y-75401000D01*
X98681093Y-75459191D01*
X98631593Y-75495155D01*
X98601000Y-75500000D01*
X91604704Y-75500000D01*
X91546513Y-75481093D01*
X91510549Y-75431593D01*
X91505704Y-75400959D01*
X91507577Y-70829704D01*
X91507607Y-70829239D01*
X91507607Y-70822999D01*
X91507608Y-70822996D01*
X91507607Y-70762664D01*
X91508229Y-70751581D01*
X91518881Y-70657039D01*
X91523814Y-70635426D01*
X91553388Y-70550907D01*
X91563007Y-70530933D01*
X91610647Y-70455113D01*
X91624467Y-70437785D01*
X91683257Y-70378996D01*
X91737774Y-70351219D01*
X91753260Y-70350000D01*
X98601000Y-70350000D01*
X98659191Y-70368907D01*
G37*
%TD.AperFunction*%
%TD*%
%TA.AperFunction,Conductor*%
%TO.N,+5V*%
G36*
X122359191Y-74318907D02*
G01*
X122395155Y-74368407D01*
X122400000Y-74399000D01*
X122400000Y-78500000D01*
X122400000Y-82800000D01*
X121649000Y-82800000D01*
X121590809Y-82781093D01*
X121554845Y-82731593D01*
X121550000Y-82701000D01*
X121550000Y-79950001D01*
X121550000Y-79950000D01*
X121549999Y-79950000D01*
X117899000Y-79950000D01*
X117840809Y-79931093D01*
X117804845Y-79881593D01*
X117800000Y-79851000D01*
X117800000Y-74399000D01*
X117818907Y-74340809D01*
X117868407Y-74304845D01*
X117899000Y-74300000D01*
X122301000Y-74300000D01*
X122359191Y-74318907D01*
G37*
%TD.AperFunction*%
%TD*%
%TA.AperFunction,Conductor*%
%TO.N,Net-(D3-K)*%
G36*
X117553691Y-74318907D02*
G01*
X117589655Y-74368407D01*
X117594500Y-74399000D01*
X117594500Y-79851000D01*
X117596467Y-79876000D01*
X117597030Y-79883146D01*
X117598781Y-79894198D01*
X117600000Y-79909685D01*
X117600000Y-82651000D01*
X117581093Y-82709191D01*
X117531593Y-82745155D01*
X117501000Y-82750000D01*
X114349000Y-82750000D01*
X114290809Y-82731093D01*
X114254845Y-82681593D01*
X114250000Y-82651000D01*
X114250000Y-79100001D01*
X114250000Y-77600000D01*
X113250000Y-77600000D01*
X113249999Y-77600000D01*
X111449000Y-77600000D01*
X111390809Y-77581093D01*
X111354845Y-77531593D01*
X111350000Y-77501000D01*
X111350000Y-74399000D01*
X111368907Y-74340809D01*
X111418407Y-74304845D01*
X111449000Y-74300000D01*
X117495500Y-74300000D01*
X117553691Y-74318907D01*
G37*
%TD.AperFunction*%
%TD*%
%TA.AperFunction,Conductor*%
%TO.N,Net-(D3-K)*%
G36*
X114250000Y-79100000D02*
G01*
X113349000Y-79100000D01*
X113290809Y-79081093D01*
X113254845Y-79031593D01*
X113250000Y-79001000D01*
X113250000Y-77600001D01*
X113250000Y-77600000D01*
X114250000Y-77600000D01*
X114250000Y-79100000D01*
G37*
%TD.AperFunction*%
%TD*%
%TA.AperFunction,Conductor*%
%TO.N,Net-(D1-A)*%
G36*
X96900000Y-77150000D02*
G01*
X98900000Y-77150000D01*
X98900000Y-77150001D01*
X98900000Y-81051000D01*
X98881093Y-81109191D01*
X98831593Y-81145155D01*
X98801000Y-81150000D01*
X96650000Y-81150000D01*
X96199000Y-81150000D01*
X96140809Y-81131093D01*
X96104845Y-81081593D01*
X96100000Y-81051000D01*
X96100000Y-75804500D01*
X96118907Y-75746309D01*
X96168407Y-75710345D01*
X96199000Y-75705500D01*
X96900000Y-75705500D01*
X96900000Y-77150000D01*
G37*
%TD.AperFunction*%
%TD*%
%TA.AperFunction,Conductor*%
%TO.N,Net-(D1-A)*%
G36*
X101109191Y-70368907D02*
G01*
X101145155Y-70418407D01*
X101150000Y-70449000D01*
X101150000Y-77051000D01*
X101131093Y-77109191D01*
X101081593Y-77145155D01*
X101051000Y-77150000D01*
X96900000Y-77150000D01*
X96900000Y-75705500D01*
X98600993Y-75705500D01*
X98601000Y-75705500D01*
X98633144Y-75702970D01*
X98644200Y-75701218D01*
X98659686Y-75700000D01*
X98899999Y-75700000D01*
X98900000Y-75700000D01*
X98900000Y-75443517D01*
X98901219Y-75428029D01*
X98905500Y-75401000D01*
X98905500Y-70449000D01*
X98924407Y-70390809D01*
X98973907Y-70354845D01*
X99004500Y-70350000D01*
X101051000Y-70350000D01*
X101109191Y-70368907D01*
G37*
%TD.AperFunction*%
%TD*%
%TA.AperFunction,Conductor*%
%TO.N,GND*%
G36*
X127403691Y-70276514D02*
G01*
X127439655Y-70326014D01*
X127444500Y-70356607D01*
X127444500Y-78195500D01*
X127425593Y-78253691D01*
X127376093Y-78289655D01*
X127345500Y-78294500D01*
X122704500Y-78294500D01*
X122646309Y-78275593D01*
X122610345Y-78226093D01*
X122605500Y-78195500D01*
X122605500Y-74399006D01*
X122605500Y-74399000D01*
X122602970Y-74366856D01*
X122598125Y-74336263D01*
X122598116Y-74336206D01*
X122597353Y-74331714D01*
X122597352Y-74331713D01*
X122561408Y-74247617D01*
X122525444Y-74198117D01*
X122501203Y-74170372D01*
X122422693Y-74123464D01*
X122422691Y-74123463D01*
X122422689Y-74123462D01*
X122364499Y-74104556D01*
X122364500Y-74104556D01*
X122301003Y-74094500D01*
X122301000Y-74094500D01*
X117899000Y-74094500D01*
X117866856Y-74097030D01*
X117836206Y-74101883D01*
X117831718Y-74102646D01*
X117831713Y-74102647D01*
X117747613Y-74138593D01*
X117743844Y-74140732D01*
X117683901Y-74153001D01*
X117644217Y-74139610D01*
X117617196Y-74123466D01*
X117617193Y-74123464D01*
X117617191Y-74123463D01*
X117617189Y-74123462D01*
X117558999Y-74104556D01*
X117559000Y-74104556D01*
X117495503Y-74094500D01*
X117495500Y-74094500D01*
X111449000Y-74094500D01*
X111416856Y-74097030D01*
X111386206Y-74101883D01*
X111381718Y-74102646D01*
X111381713Y-74102647D01*
X111297617Y-74138591D01*
X111248118Y-74174555D01*
X111220372Y-74198797D01*
X111173464Y-74277307D01*
X111173462Y-74277310D01*
X111154556Y-74335499D01*
X111144500Y-74398996D01*
X111144500Y-74650500D01*
X111125593Y-74708691D01*
X111076093Y-74744655D01*
X111045500Y-74749500D01*
X111037010Y-74749500D01*
X110978819Y-74730593D01*
X110948801Y-74695445D01*
X110898529Y-74596782D01*
X110898528Y-74596780D01*
X110803220Y-74501472D01*
X110803217Y-74501470D01*
X110683132Y-74440283D01*
X110683127Y-74440281D01*
X110683126Y-74440281D01*
X110649913Y-74435020D01*
X110583490Y-74424500D01*
X110583488Y-74424500D01*
X110066512Y-74424500D01*
X110066510Y-74424500D01*
X109966874Y-74440281D01*
X109966867Y-74440283D01*
X109846782Y-74501470D01*
X109751470Y-74596782D01*
X109690283Y-74716867D01*
X109690281Y-74716874D01*
X109674500Y-74816510D01*
X109674500Y-75383489D01*
X109690281Y-75483125D01*
X109690283Y-75483132D01*
X109724100Y-75549500D01*
X109751472Y-75603220D01*
X109846780Y-75698528D01*
X109846782Y-75698529D01*
X109966867Y-75759716D01*
X109966869Y-75759716D01*
X109966874Y-75759719D01*
X110042541Y-75771703D01*
X110066510Y-75775500D01*
X110066512Y-75775500D01*
X110583490Y-75775500D01*
X110604885Y-75772111D01*
X110683126Y-75759719D01*
X110803220Y-75698528D01*
X110898528Y-75603220D01*
X110941488Y-75518907D01*
X110948801Y-75504555D01*
X110992065Y-75461290D01*
X111037010Y-75450500D01*
X111045500Y-75450500D01*
X111103691Y-75469407D01*
X111139655Y-75518907D01*
X111144500Y-75549500D01*
X111144500Y-77501000D01*
X111147030Y-77533143D01*
X111151883Y-77563793D01*
X111152646Y-77568281D01*
X111152647Y-77568286D01*
X111188591Y-77652382D01*
X111188592Y-77652383D01*
X111224556Y-77701883D01*
X111248797Y-77729628D01*
X111327307Y-77776536D01*
X111385498Y-77795443D01*
X111395519Y-77797030D01*
X111448996Y-77805500D01*
X111449000Y-77805500D01*
X112945500Y-77805500D01*
X113003691Y-77824407D01*
X113039655Y-77873907D01*
X113044500Y-77904500D01*
X113044500Y-79001000D01*
X113046053Y-79020728D01*
X113047030Y-79033148D01*
X113048910Y-79045014D01*
X113039338Y-79105446D01*
X112996073Y-79148710D01*
X112951129Y-79159500D01*
X111429752Y-79159500D01*
X111429751Y-79159500D01*
X111429741Y-79159501D01*
X111371272Y-79171132D01*
X111371266Y-79171134D01*
X111304951Y-79215445D01*
X111304945Y-79215451D01*
X111260634Y-79281766D01*
X111260632Y-79281772D01*
X111249001Y-79340241D01*
X111249000Y-79340253D01*
X111249000Y-80029746D01*
X111249001Y-80029758D01*
X111260632Y-80088227D01*
X111260634Y-80088233D01*
X111298861Y-80145443D01*
X111304948Y-80154552D01*
X111371269Y-80198867D01*
X111415731Y-80207711D01*
X111429741Y-80210498D01*
X111429746Y-80210498D01*
X111429752Y-80210500D01*
X111429753Y-80210500D01*
X112994247Y-80210500D01*
X112994248Y-80210500D01*
X113052731Y-80198867D01*
X113119052Y-80154552D01*
X113119052Y-80154551D01*
X113127159Y-80149135D01*
X113127823Y-80150130D01*
X113173466Y-80126870D01*
X113233899Y-80136437D01*
X113258964Y-80154646D01*
X113320504Y-80216186D01*
X113348281Y-80270703D01*
X113349500Y-80286190D01*
X113349500Y-80503977D01*
X113330593Y-80562168D01*
X113281093Y-80598132D01*
X113219907Y-80598132D01*
X113170407Y-80562168D01*
X113168185Y-80558979D01*
X113119054Y-80485451D01*
X113119052Y-80485448D01*
X113052990Y-80441306D01*
X113052733Y-80441134D01*
X113052731Y-80441133D01*
X113052728Y-80441132D01*
X113052727Y-80441132D01*
X112994258Y-80429501D01*
X112994248Y-80429500D01*
X111429752Y-80429500D01*
X111429751Y-80429500D01*
X111429741Y-80429501D01*
X111371272Y-80441132D01*
X111371266Y-80441134D01*
X111304951Y-80485445D01*
X111304945Y-80485451D01*
X111260634Y-80551766D01*
X111260632Y-80551772D01*
X111249001Y-80610241D01*
X111249000Y-80610253D01*
X111249000Y-81299746D01*
X111249001Y-81299758D01*
X111260632Y-81358227D01*
X111260634Y-81358233D01*
X111282528Y-81390999D01*
X111304948Y-81424552D01*
X111371269Y-81468867D01*
X111415731Y-81477711D01*
X111429741Y-81480498D01*
X111429746Y-81480498D01*
X111429752Y-81480500D01*
X111762500Y-81480500D01*
X111820691Y-81499407D01*
X111856655Y-81548907D01*
X111861500Y-81579500D01*
X111861500Y-81951810D01*
X111842593Y-82010001D01*
X111832504Y-82021814D01*
X110569530Y-83284788D01*
X110523386Y-83364712D01*
X110512898Y-83403856D01*
X110499500Y-83453857D01*
X110499500Y-83778310D01*
X110480593Y-83836501D01*
X110445446Y-83866519D01*
X110336659Y-83921949D01*
X110246949Y-84011659D01*
X110229734Y-84045446D01*
X110186469Y-84088710D01*
X110141525Y-84099500D01*
X109958475Y-84099500D01*
X109900284Y-84080593D01*
X109870266Y-84045446D01*
X109855598Y-84016659D01*
X109853050Y-84011658D01*
X109763342Y-83921950D01*
X109650304Y-83864354D01*
X109650305Y-83864354D01*
X109556522Y-83849500D01*
X108943479Y-83849500D01*
X108943476Y-83849501D01*
X108849700Y-83864352D01*
X108849695Y-83864354D01*
X108736659Y-83921949D01*
X108646949Y-84011659D01*
X108589354Y-84124695D01*
X108574500Y-84218477D01*
X108574500Y-84681520D01*
X108574501Y-84681523D01*
X108589352Y-84775299D01*
X108589354Y-84775304D01*
X108646950Y-84888342D01*
X108736658Y-84978050D01*
X108849696Y-85035646D01*
X108943481Y-85050500D01*
X109556518Y-85050499D01*
X109556520Y-85050499D01*
X109556521Y-85050498D01*
X109603411Y-85043072D01*
X109650299Y-85035647D01*
X109650299Y-85035646D01*
X109650304Y-85035646D01*
X109763342Y-84978050D01*
X109853050Y-84888342D01*
X109870266Y-84854554D01*
X109913531Y-84811290D01*
X109958475Y-84800500D01*
X110141525Y-84800500D01*
X110199716Y-84819407D01*
X110229734Y-84854554D01*
X110246950Y-84888342D01*
X110336658Y-84978050D01*
X110449696Y-85035646D01*
X110543481Y-85050500D01*
X111156518Y-85050499D01*
X111156520Y-85050499D01*
X111156521Y-85050498D01*
X111203411Y-85043072D01*
X111250299Y-85035647D01*
X111250299Y-85035646D01*
X111250304Y-85035646D01*
X111363342Y-84978050D01*
X111453050Y-84888342D01*
X111510646Y-84775304D01*
X111525500Y-84681519D01*
X111525499Y-84218482D01*
X111513367Y-84141874D01*
X111510647Y-84124700D01*
X111510646Y-84124698D01*
X111510646Y-84124696D01*
X111453050Y-84011658D01*
X111363342Y-83921950D01*
X111318312Y-83899006D01*
X111254554Y-83866519D01*
X111211290Y-83823254D01*
X111200500Y-83778310D01*
X111200500Y-83686189D01*
X111219407Y-83627998D01*
X111229490Y-83616191D01*
X112492470Y-82353212D01*
X112538614Y-82273288D01*
X112538616Y-82273282D01*
X112541803Y-82261388D01*
X112541803Y-82261386D01*
X112562500Y-82184144D01*
X112562500Y-81579500D01*
X112581407Y-81521309D01*
X112630907Y-81485345D01*
X112661500Y-81480500D01*
X112994247Y-81480500D01*
X112994248Y-81480500D01*
X113052731Y-81468867D01*
X113119052Y-81424552D01*
X113163367Y-81358231D01*
X113163367Y-81358230D01*
X113168185Y-81351020D01*
X113216235Y-81313141D01*
X113277373Y-81310739D01*
X113328247Y-81344732D01*
X113349424Y-81402136D01*
X113349500Y-81406022D01*
X113349500Y-83546143D01*
X113362456Y-83594499D01*
X113373384Y-83635284D01*
X113373385Y-83635286D01*
X113373386Y-83635288D01*
X113419530Y-83715212D01*
X113419532Y-83715214D01*
X113518781Y-83814464D01*
X113546558Y-83868980D01*
X113536986Y-83929412D01*
X113518781Y-83954470D01*
X113451473Y-84021778D01*
X113451470Y-84021782D01*
X113390283Y-84141867D01*
X113390281Y-84141874D01*
X113374500Y-84241510D01*
X113374500Y-84758489D01*
X113390281Y-84858125D01*
X113390283Y-84858132D01*
X113451385Y-84978050D01*
X113451472Y-84978220D01*
X113546780Y-85073528D01*
X113546782Y-85073529D01*
X113666867Y-85134716D01*
X113666869Y-85134716D01*
X113666874Y-85134719D01*
X113742541Y-85146703D01*
X113766510Y-85150500D01*
X113766512Y-85150500D01*
X114333490Y-85150500D01*
X114354885Y-85147111D01*
X114433126Y-85134719D01*
X114553220Y-85073528D01*
X114648528Y-84978220D01*
X114686063Y-84904554D01*
X114729328Y-84861290D01*
X114774272Y-84850500D01*
X114925728Y-84850500D01*
X114983919Y-84869407D01*
X115013937Y-84904554D01*
X115048972Y-84973314D01*
X115051472Y-84978220D01*
X115146780Y-85073528D01*
X115146782Y-85073529D01*
X115266867Y-85134716D01*
X115266869Y-85134716D01*
X115266874Y-85134719D01*
X115342541Y-85146703D01*
X115366510Y-85150500D01*
X115366512Y-85150500D01*
X115933490Y-85150500D01*
X115954885Y-85147111D01*
X116033126Y-85134719D01*
X116153220Y-85073528D01*
X116248528Y-84978220D01*
X116309719Y-84858126D01*
X116325500Y-84758488D01*
X116325500Y-84241512D01*
X116309719Y-84141874D01*
X116309716Y-84141869D01*
X116309716Y-84141867D01*
X116248529Y-84021782D01*
X116248528Y-84021780D01*
X116153220Y-83926472D01*
X116153217Y-83926470D01*
X116033132Y-83865283D01*
X116033127Y-83865281D01*
X116033126Y-83865281D01*
X115999913Y-83860020D01*
X115933490Y-83849500D01*
X115933488Y-83849500D01*
X115366512Y-83849500D01*
X115366510Y-83849500D01*
X115266874Y-83865281D01*
X115266867Y-83865283D01*
X115146782Y-83926470D01*
X115051471Y-84021781D01*
X115013937Y-84095446D01*
X114970672Y-84138710D01*
X114925728Y-84149500D01*
X114774272Y-84149500D01*
X114716081Y-84130593D01*
X114686063Y-84095446D01*
X114648529Y-84021782D01*
X114648528Y-84021780D01*
X114553220Y-83926472D01*
X114520370Y-83909734D01*
X114453230Y-83875524D01*
X114409966Y-83832259D01*
X114403024Y-83809897D01*
X114402179Y-83810124D01*
X114400500Y-83803858D01*
X114400500Y-83803856D01*
X114376614Y-83714712D01*
X114348035Y-83665212D01*
X114330470Y-83634788D01*
X114215864Y-83520182D01*
X114079496Y-83383813D01*
X114051719Y-83329297D01*
X114050500Y-83313810D01*
X114050500Y-82995372D01*
X114069407Y-82937181D01*
X114118907Y-82901217D01*
X114180093Y-82901217D01*
X114200272Y-82910383D01*
X114227307Y-82926536D01*
X114285498Y-82945443D01*
X114297552Y-82947352D01*
X114348996Y-82955500D01*
X114349000Y-82955500D01*
X117500993Y-82955500D01*
X117501000Y-82955500D01*
X117533144Y-82952970D01*
X117563737Y-82948125D01*
X117563748Y-82948123D01*
X117563793Y-82948116D01*
X117568281Y-82947353D01*
X117568280Y-82947353D01*
X117568287Y-82947352D01*
X117652383Y-82911408D01*
X117701883Y-82875444D01*
X117729628Y-82851203D01*
X117776536Y-82772693D01*
X117795443Y-82714502D01*
X117805500Y-82651000D01*
X117805500Y-80254500D01*
X117824407Y-80196309D01*
X117873907Y-80160345D01*
X117904500Y-80155500D01*
X121245499Y-80155500D01*
X121303690Y-80174407D01*
X121339654Y-80223907D01*
X121344499Y-80254500D01*
X121344499Y-81518811D01*
X121325592Y-81577002D01*
X121315503Y-81588814D01*
X121169529Y-81734788D01*
X121125306Y-81811384D01*
X121125307Y-81811385D01*
X121123386Y-81814710D01*
X121123385Y-81814715D01*
X121099500Y-81903857D01*
X121099500Y-86363810D01*
X121080593Y-86422001D01*
X121070504Y-86433814D01*
X120483814Y-87020504D01*
X120429297Y-87048281D01*
X120413810Y-87049500D01*
X109699500Y-87049500D01*
X109641309Y-87030593D01*
X109605345Y-86981093D01*
X109600500Y-86950500D01*
X109600500Y-86771689D01*
X109619407Y-86713498D01*
X109654552Y-86683481D01*
X109763342Y-86628050D01*
X109853050Y-86538342D01*
X109910646Y-86425304D01*
X109925500Y-86331520D01*
X111774500Y-86331520D01*
X111774501Y-86331523D01*
X111789352Y-86425299D01*
X111789354Y-86425304D01*
X111846950Y-86538342D01*
X111936658Y-86628050D01*
X112049696Y-86685646D01*
X112143481Y-86700500D01*
X112756518Y-86700499D01*
X112756520Y-86700499D01*
X112756521Y-86700498D01*
X112803411Y-86693072D01*
X112850299Y-86685647D01*
X112850299Y-86685646D01*
X112850304Y-86685646D01*
X112963342Y-86628050D01*
X113053050Y-86538342D01*
X113070266Y-86504554D01*
X113113531Y-86461290D01*
X113158475Y-86450500D01*
X113351204Y-86450500D01*
X113409395Y-86469407D01*
X113439414Y-86504555D01*
X113451472Y-86528220D01*
X113546780Y-86623528D01*
X113546782Y-86623529D01*
X113666867Y-86684716D01*
X113666869Y-86684716D01*
X113666874Y-86684719D01*
X113742541Y-86696703D01*
X113766510Y-86700500D01*
X113766512Y-86700500D01*
X114333490Y-86700500D01*
X114354885Y-86697111D01*
X114433126Y-86684719D01*
X114553220Y-86623528D01*
X114648528Y-86528220D01*
X114709719Y-86408126D01*
X114725500Y-86308488D01*
X114725500Y-85791512D01*
X114722836Y-85774695D01*
X114715851Y-85730593D01*
X114709719Y-85691874D01*
X114709716Y-85691869D01*
X114709716Y-85691867D01*
X114648529Y-85571782D01*
X114648528Y-85571780D01*
X114553220Y-85476472D01*
X114553217Y-85476470D01*
X114433132Y-85415283D01*
X114433127Y-85415281D01*
X114433126Y-85415281D01*
X114399913Y-85410020D01*
X114333490Y-85399500D01*
X114333488Y-85399500D01*
X113766512Y-85399500D01*
X113766510Y-85399500D01*
X113666874Y-85415281D01*
X113666867Y-85415283D01*
X113546782Y-85476470D01*
X113546780Y-85476472D01*
X113451472Y-85571780D01*
X113390281Y-85691874D01*
X113390280Y-85691875D01*
X113388462Y-85695445D01*
X113345197Y-85738710D01*
X113300252Y-85749500D01*
X113158475Y-85749500D01*
X113100284Y-85730593D01*
X113070266Y-85695446D01*
X113068442Y-85691867D01*
X113053050Y-85661658D01*
X112963342Y-85571950D01*
X112850304Y-85514354D01*
X112850305Y-85514354D01*
X112756522Y-85499500D01*
X112143479Y-85499500D01*
X112143476Y-85499501D01*
X112049700Y-85514352D01*
X112049695Y-85514354D01*
X111936659Y-85571949D01*
X111846949Y-85661659D01*
X111789354Y-85774695D01*
X111774500Y-85868477D01*
X111774500Y-86331520D01*
X109925500Y-86331520D01*
X109925500Y-86331519D01*
X109925499Y-85868482D01*
X109910646Y-85774696D01*
X109853050Y-85661658D01*
X109763342Y-85571950D01*
X109650304Y-85514354D01*
X109650305Y-85514354D01*
X109556522Y-85499500D01*
X108943479Y-85499500D01*
X108943476Y-85499501D01*
X108849700Y-85514352D01*
X108849695Y-85514354D01*
X108736659Y-85571949D01*
X108646949Y-85661659D01*
X108589354Y-85774695D01*
X108574500Y-85868477D01*
X108574500Y-86331520D01*
X108574501Y-86331523D01*
X108589352Y-86425299D01*
X108589354Y-86425304D01*
X108646950Y-86538342D01*
X108736658Y-86628050D01*
X108845447Y-86683481D01*
X108888710Y-86726744D01*
X108899500Y-86771689D01*
X108899500Y-87196144D01*
X108905733Y-87219407D01*
X108910560Y-87237420D01*
X108910559Y-87237420D01*
X108923385Y-87285285D01*
X108923386Y-87285288D01*
X108969530Y-87365212D01*
X108969531Y-87365213D01*
X108969532Y-87365214D01*
X109219530Y-87615211D01*
X109219531Y-87615213D01*
X109284787Y-87680468D01*
X109284789Y-87680470D01*
X109333702Y-87708710D01*
X109364712Y-87726614D01*
X109453856Y-87750500D01*
X109453858Y-87750500D01*
X120646142Y-87750500D01*
X120646144Y-87750500D01*
X120735288Y-87726614D01*
X120815212Y-87680470D01*
X121379998Y-87115683D01*
X121434513Y-87087908D01*
X121494945Y-87097479D01*
X121520000Y-87115682D01*
X121534788Y-87130470D01*
X121614712Y-87176614D01*
X121703856Y-87200500D01*
X121715810Y-87200500D01*
X121774001Y-87219407D01*
X121804019Y-87254554D01*
X121819679Y-87285288D01*
X121859450Y-87363342D01*
X121949158Y-87453050D01*
X122062196Y-87510646D01*
X122155981Y-87525500D01*
X122619018Y-87525499D01*
X122619020Y-87525499D01*
X122619021Y-87525498D01*
X122665911Y-87518072D01*
X122712799Y-87510647D01*
X122712799Y-87510646D01*
X122712804Y-87510646D01*
X122825842Y-87453050D01*
X122915550Y-87363342D01*
X122973146Y-87250304D01*
X122988000Y-87156520D01*
X123437000Y-87156520D01*
X123437001Y-87156523D01*
X123451852Y-87250299D01*
X123451854Y-87250304D01*
X123509450Y-87363342D01*
X123599158Y-87453050D01*
X123712196Y-87510646D01*
X123805981Y-87525500D01*
X124269018Y-87525499D01*
X124269020Y-87525499D01*
X124269021Y-87525498D01*
X124315911Y-87518072D01*
X124362799Y-87510647D01*
X124362799Y-87510646D01*
X124362804Y-87510646D01*
X124475842Y-87453050D01*
X124565550Y-87363342D01*
X124615422Y-87265462D01*
X124658684Y-87222202D01*
X124719116Y-87212630D01*
X124773632Y-87240407D01*
X124791838Y-87265465D01*
X124801939Y-87285288D01*
X124837842Y-87355751D01*
X124931749Y-87449658D01*
X125050080Y-87509951D01*
X125116630Y-87520491D01*
X125148251Y-87525500D01*
X125148254Y-87525500D01*
X125651749Y-87525500D01*
X125680303Y-87520976D01*
X125749920Y-87509951D01*
X125868251Y-87449658D01*
X125962158Y-87355751D01*
X126022451Y-87237420D01*
X126038000Y-87139246D01*
X126038000Y-86560754D01*
X126035264Y-86543482D01*
X126026377Y-86487369D01*
X126022451Y-86462580D01*
X125962158Y-86344249D01*
X125868251Y-86250342D01*
X125830577Y-86231146D01*
X125749923Y-86190050D01*
X125749920Y-86190049D01*
X125725376Y-86186161D01*
X125651749Y-86174500D01*
X125651746Y-86174500D01*
X125148254Y-86174500D01*
X125148251Y-86174500D01*
X125050080Y-86190049D01*
X125050076Y-86190050D01*
X124931750Y-86250341D01*
X124837841Y-86344250D01*
X124791838Y-86434534D01*
X124748573Y-86477798D01*
X124688140Y-86487369D01*
X124633624Y-86459590D01*
X124615422Y-86434537D01*
X124565550Y-86336658D01*
X124475842Y-86246950D01*
X124362804Y-86189354D01*
X124362805Y-86189354D01*
X124269022Y-86174500D01*
X123805979Y-86174500D01*
X123805976Y-86174501D01*
X123712200Y-86189352D01*
X123712195Y-86189354D01*
X123599159Y-86246949D01*
X123509449Y-86336659D01*
X123451854Y-86449695D01*
X123437000Y-86543477D01*
X123437000Y-87156520D01*
X122988000Y-87156520D01*
X122988000Y-87156519D01*
X122987999Y-86543482D01*
X122981034Y-86499500D01*
X122973147Y-86449700D01*
X122973146Y-86449698D01*
X122973146Y-86449696D01*
X122915550Y-86336658D01*
X122825842Y-86246950D01*
X122712804Y-86189354D01*
X122712805Y-86189354D01*
X122619022Y-86174500D01*
X122155979Y-86174500D01*
X122155976Y-86174501D01*
X122062200Y-86189352D01*
X122062192Y-86189354D01*
X121944445Y-86249351D01*
X121884013Y-86258923D01*
X121829497Y-86231146D01*
X121801719Y-86176629D01*
X121800500Y-86161142D01*
X121800500Y-83104500D01*
X121819407Y-83046309D01*
X121868907Y-83010345D01*
X121899500Y-83005500D01*
X131250993Y-83005500D01*
X131251000Y-83005500D01*
X131283144Y-83002970D01*
X131313737Y-82998125D01*
X131313748Y-82998123D01*
X131313793Y-82998116D01*
X131318276Y-82997354D01*
X131318277Y-82997353D01*
X131318287Y-82997352D01*
X131318296Y-82997348D01*
X131320490Y-82996703D01*
X131321883Y-82996741D01*
X131324043Y-82996375D01*
X131324115Y-82996804D01*
X131381651Y-82998407D01*
X131430131Y-83035736D01*
X131447448Y-83091632D01*
X131449497Y-88087312D01*
X131448875Y-88098437D01*
X131438047Y-88194545D01*
X131433113Y-88216159D01*
X131403015Y-88302174D01*
X131393397Y-88322147D01*
X131344911Y-88399313D01*
X131331089Y-88416646D01*
X131266646Y-88481089D01*
X131249313Y-88494911D01*
X131172147Y-88543397D01*
X131152174Y-88553015D01*
X131066159Y-88583113D01*
X131044544Y-88588047D01*
X130948416Y-88598877D01*
X130937333Y-88599499D01*
X130870942Y-88599499D01*
X130870926Y-88599500D01*
X92079074Y-88599500D01*
X92079058Y-88599499D01*
X92012666Y-88599499D01*
X92001583Y-88598877D01*
X91905455Y-88588047D01*
X91883840Y-88583113D01*
X91797825Y-88553015D01*
X91777852Y-88543397D01*
X91700686Y-88494911D01*
X91683353Y-88481089D01*
X91618910Y-88416646D01*
X91605088Y-88399313D01*
X91556602Y-88322147D01*
X91546984Y-88302174D01*
X91516886Y-88216159D01*
X91511952Y-88194545D01*
X91501124Y-88098437D01*
X91500502Y-88087312D01*
X91500733Y-87525500D01*
X91503001Y-81992818D01*
X91505538Y-75804459D01*
X91524469Y-75746276D01*
X91573984Y-75710333D01*
X91604538Y-75705500D01*
X91604704Y-75705500D01*
X95795500Y-75705500D01*
X95853691Y-75724407D01*
X95889655Y-75773907D01*
X95894500Y-75804500D01*
X95894500Y-81051000D01*
X95897030Y-81083143D01*
X95901883Y-81113793D01*
X95902646Y-81118281D01*
X95902647Y-81118286D01*
X95938588Y-81202375D01*
X95938590Y-81202379D01*
X95938592Y-81202383D01*
X95938594Y-81202386D01*
X95940728Y-81206146D01*
X95953002Y-81266088D01*
X95939611Y-81305781D01*
X95923465Y-81332805D01*
X95923462Y-81332810D01*
X95904556Y-81390999D01*
X95894500Y-81454496D01*
X95894500Y-81454500D01*
X95894500Y-85051000D01*
X95896273Y-85073528D01*
X95897030Y-85083143D01*
X95901883Y-85113793D01*
X95902646Y-85118281D01*
X95902647Y-85118286D01*
X95938591Y-85202382D01*
X95952127Y-85221012D01*
X95974556Y-85251883D01*
X95998797Y-85279628D01*
X96077307Y-85326536D01*
X96135498Y-85345443D01*
X96148198Y-85347454D01*
X96198996Y-85355500D01*
X96199000Y-85355500D01*
X103819740Y-85355500D01*
X103877931Y-85374407D01*
X103913895Y-85423907D01*
X103913895Y-85485093D01*
X103899834Y-85512689D01*
X103896949Y-85516658D01*
X103839354Y-85629695D01*
X103824500Y-85723477D01*
X103824500Y-86336520D01*
X103824501Y-86336523D01*
X103839352Y-86430299D01*
X103839354Y-86430304D01*
X103896950Y-86543342D01*
X103986658Y-86633050D01*
X104099696Y-86690646D01*
X104193481Y-86705500D01*
X104656518Y-86705499D01*
X104656520Y-86705499D01*
X104656521Y-86705498D01*
X104703411Y-86698072D01*
X104750299Y-86690647D01*
X104750299Y-86690646D01*
X104750304Y-86690646D01*
X104863342Y-86633050D01*
X104953050Y-86543342D01*
X105010646Y-86430304D01*
X105025500Y-86336519D01*
X105025499Y-86116188D01*
X105044406Y-86057999D01*
X105054489Y-86046191D01*
X105866185Y-85234494D01*
X105920702Y-85206718D01*
X105936189Y-85205499D01*
X106306521Y-85205499D01*
X106306522Y-85205498D01*
X106353411Y-85198072D01*
X106400299Y-85190647D01*
X106400299Y-85190646D01*
X106400304Y-85190646D01*
X106513342Y-85133050D01*
X106603050Y-85043342D01*
X106660646Y-84930304D01*
X106675500Y-84836519D01*
X106675499Y-84223482D01*
X106675498Y-84223478D01*
X106675498Y-84223476D01*
X106660647Y-84129700D01*
X106660646Y-84129698D01*
X106660646Y-84129696D01*
X106603050Y-84016658D01*
X106513342Y-83926950D01*
X106479554Y-83909734D01*
X106436290Y-83866469D01*
X106425500Y-83821525D01*
X106425500Y-83328857D01*
X106421468Y-83313810D01*
X106401614Y-83239712D01*
X106363320Y-83173386D01*
X106355469Y-83159787D01*
X105829496Y-82633814D01*
X105801719Y-82579297D01*
X105800500Y-82563810D01*
X105800500Y-81556015D01*
X105819407Y-81497824D01*
X105868907Y-81461860D01*
X105930093Y-81461860D01*
X105938021Y-81465705D01*
X105938258Y-81465134D01*
X105947264Y-81468863D01*
X105947269Y-81468867D01*
X105991731Y-81477711D01*
X106005741Y-81480498D01*
X106005746Y-81480498D01*
X106005752Y-81480500D01*
X106338500Y-81480500D01*
X106396691Y-81499407D01*
X106432655Y-81548907D01*
X106437500Y-81579500D01*
X106437500Y-82634143D01*
X106455413Y-82700999D01*
X106461384Y-82723284D01*
X106461385Y-82723286D01*
X106461386Y-82723288D01*
X106507530Y-82803212D01*
X107270505Y-83566187D01*
X107298281Y-83620702D01*
X107299500Y-83636189D01*
X107299500Y-83787989D01*
X107280593Y-83846180D01*
X107245446Y-83876198D01*
X107146781Y-83926471D01*
X107051470Y-84021782D01*
X106990283Y-84141867D01*
X106990281Y-84141874D01*
X106974500Y-84241510D01*
X106974500Y-84758489D01*
X106990281Y-84858125D01*
X106990283Y-84858132D01*
X107051385Y-84978050D01*
X107051472Y-84978220D01*
X107146780Y-85073528D01*
X107146782Y-85073529D01*
X107266867Y-85134716D01*
X107266869Y-85134716D01*
X107266874Y-85134719D01*
X107342541Y-85146703D01*
X107366510Y-85150500D01*
X107366512Y-85150500D01*
X107933490Y-85150500D01*
X107954885Y-85147111D01*
X108033126Y-85134719D01*
X108153220Y-85073528D01*
X108248528Y-84978220D01*
X108309719Y-84858126D01*
X108325500Y-84758488D01*
X108325500Y-84241512D01*
X108309719Y-84141874D01*
X108309716Y-84141869D01*
X108309716Y-84141867D01*
X108248529Y-84021782D01*
X108248528Y-84021780D01*
X108153220Y-83926472D01*
X108144343Y-83921949D01*
X108054554Y-83876198D01*
X108011290Y-83832933D01*
X108000500Y-83787989D01*
X108000500Y-83403857D01*
X108000500Y-83403856D01*
X107976614Y-83314712D01*
X107959337Y-83284788D01*
X107930470Y-83234788D01*
X107167496Y-82471814D01*
X107139719Y-82417297D01*
X107138500Y-82401810D01*
X107138500Y-81579500D01*
X107157407Y-81521309D01*
X107206907Y-81485345D01*
X107237500Y-81480500D01*
X107570247Y-81480500D01*
X107570248Y-81480500D01*
X107628731Y-81468867D01*
X107695052Y-81424552D01*
X107739367Y-81358231D01*
X107751000Y-81299748D01*
X107751000Y-80610252D01*
X107739367Y-80551769D01*
X107695052Y-80485448D01*
X107628990Y-80441306D01*
X107628733Y-80441134D01*
X107628731Y-80441133D01*
X107628728Y-80441132D01*
X107628727Y-80441132D01*
X107570258Y-80429501D01*
X107570248Y-80429500D01*
X106005752Y-80429500D01*
X106005751Y-80429500D01*
X106005741Y-80429501D01*
X105947272Y-80441132D01*
X105947270Y-80441132D01*
X105947269Y-80441133D01*
X105947268Y-80441133D01*
X105938258Y-80444866D01*
X105936783Y-80441306D01*
X105895536Y-80452905D01*
X105838149Y-80431682D01*
X105804196Y-80380782D01*
X105800500Y-80353984D01*
X105800500Y-80286188D01*
X105819407Y-80227997D01*
X105829486Y-80216195D01*
X105829603Y-80216078D01*
X105884117Y-80188303D01*
X105937580Y-80196770D01*
X105938258Y-80195134D01*
X105947264Y-80198863D01*
X105947269Y-80198867D01*
X105991731Y-80207711D01*
X106005741Y-80210498D01*
X106005746Y-80210498D01*
X106005752Y-80210500D01*
X106005753Y-80210500D01*
X107570247Y-80210500D01*
X107570248Y-80210500D01*
X107628731Y-80198867D01*
X107695052Y-80154552D01*
X107739367Y-80088231D01*
X107751000Y-80029748D01*
X107751000Y-79340252D01*
X107739367Y-79281769D01*
X107725140Y-79260477D01*
X107708532Y-79201592D01*
X107729709Y-79144188D01*
X107749268Y-79125382D01*
X107751883Y-79123483D01*
X107779628Y-79099242D01*
X107826536Y-79020732D01*
X107845443Y-78962541D01*
X107855500Y-78899039D01*
X107855500Y-78099000D01*
X107852970Y-78066856D01*
X107848125Y-78036263D01*
X107848116Y-78036206D01*
X107847353Y-78031714D01*
X107847352Y-78031713D01*
X107811408Y-77947617D01*
X107775444Y-77898117D01*
X107751203Y-77870372D01*
X107672693Y-77823464D01*
X107672691Y-77823463D01*
X107672689Y-77823462D01*
X107671493Y-77823074D01*
X107670924Y-77822660D01*
X107667627Y-77821163D01*
X107667933Y-77820488D01*
X107621993Y-77787111D01*
X107603085Y-77728920D01*
X107621992Y-77670729D01*
X107647081Y-77646605D01*
X107695052Y-77614552D01*
X107739367Y-77548231D01*
X107751000Y-77489748D01*
X107751000Y-76800252D01*
X107739367Y-76741769D01*
X107695052Y-76675448D01*
X107695048Y-76675445D01*
X107628733Y-76631134D01*
X107628731Y-76631133D01*
X107628728Y-76631132D01*
X107628727Y-76631132D01*
X107570258Y-76619501D01*
X107570248Y-76619500D01*
X107570247Y-76619500D01*
X107237500Y-76619500D01*
X107179309Y-76600593D01*
X107143345Y-76551093D01*
X107138500Y-76520500D01*
X107138500Y-75698190D01*
X107157407Y-75639999D01*
X107167496Y-75628186D01*
X107316186Y-75479496D01*
X107370703Y-75451719D01*
X107386190Y-75450500D01*
X108062990Y-75450500D01*
X108121181Y-75469407D01*
X108151199Y-75504555D01*
X108158512Y-75518907D01*
X108201472Y-75603220D01*
X108296780Y-75698528D01*
X108296782Y-75698529D01*
X108416867Y-75759716D01*
X108416869Y-75759716D01*
X108416874Y-75759719D01*
X108492541Y-75771703D01*
X108516510Y-75775500D01*
X108516512Y-75775500D01*
X109033490Y-75775500D01*
X109054885Y-75772111D01*
X109133126Y-75759719D01*
X109253220Y-75698528D01*
X109348528Y-75603220D01*
X109409719Y-75483126D01*
X109425500Y-75383488D01*
X109425500Y-74816512D01*
X109409719Y-74716874D01*
X109409716Y-74716869D01*
X109409716Y-74716867D01*
X109348529Y-74596782D01*
X109348528Y-74596780D01*
X109253220Y-74501472D01*
X109253217Y-74501470D01*
X109133132Y-74440283D01*
X109133127Y-74440281D01*
X109133126Y-74440281D01*
X109099913Y-74435020D01*
X109033490Y-74424500D01*
X109033488Y-74424500D01*
X108516512Y-74424500D01*
X108516510Y-74424500D01*
X108416874Y-74440281D01*
X108416867Y-74440283D01*
X108296782Y-74501470D01*
X108201470Y-74596782D01*
X108151199Y-74695445D01*
X108107935Y-74738710D01*
X108062990Y-74749500D01*
X107153856Y-74749500D01*
X107064712Y-74773386D01*
X106984788Y-74819530D01*
X106507530Y-75296788D01*
X106461386Y-75376712D01*
X106438724Y-75461290D01*
X106437500Y-75465857D01*
X106437500Y-76520500D01*
X106418593Y-76578691D01*
X106369093Y-76614655D01*
X106338500Y-76619500D01*
X106005752Y-76619500D01*
X106005751Y-76619500D01*
X106005741Y-76619501D01*
X105947272Y-76631132D01*
X105947266Y-76631134D01*
X105880951Y-76675445D01*
X105880945Y-76675451D01*
X105836634Y-76741766D01*
X105836632Y-76741772D01*
X105825001Y-76800241D01*
X105825000Y-76800253D01*
X105825000Y-77489746D01*
X105825001Y-77489758D01*
X105836632Y-77548227D01*
X105836634Y-77548233D01*
X105850034Y-77568287D01*
X105880948Y-77614552D01*
X105880951Y-77614554D01*
X105887843Y-77621446D01*
X105886485Y-77622803D01*
X105916782Y-77661236D01*
X105919183Y-77722374D01*
X105885189Y-77773248D01*
X105827785Y-77794424D01*
X105823900Y-77794500D01*
X103899000Y-77794500D01*
X103866856Y-77797030D01*
X103836206Y-77801883D01*
X103831718Y-77802646D01*
X103831713Y-77802647D01*
X103747617Y-77838591D01*
X103698118Y-77874555D01*
X103670372Y-77898797D01*
X103623464Y-77977307D01*
X103623462Y-77977310D01*
X103604556Y-78035499D01*
X103594500Y-78098996D01*
X103594500Y-79445500D01*
X103575593Y-79503691D01*
X103526093Y-79539655D01*
X103495500Y-79544500D01*
X101549000Y-79544500D01*
X101516856Y-79547030D01*
X101486206Y-79551883D01*
X101481718Y-79552646D01*
X101481713Y-79552647D01*
X101397617Y-79588591D01*
X101348118Y-79624555D01*
X101320372Y-79648797D01*
X101273464Y-79727307D01*
X101273462Y-79727310D01*
X101254556Y-79785499D01*
X101244500Y-79848996D01*
X101244500Y-80195500D01*
X101225593Y-80253691D01*
X101176093Y-80289655D01*
X101145500Y-80294500D01*
X99249000Y-80294500D01*
X99216856Y-80297030D01*
X99216852Y-80297030D01*
X99216847Y-80297031D01*
X99216112Y-80297118D01*
X99216007Y-80297097D01*
X99214918Y-80297183D01*
X99214893Y-80296875D01*
X99156106Y-80285166D01*
X99114584Y-80240227D01*
X99105500Y-80198801D01*
X99105500Y-77454500D01*
X99124407Y-77396309D01*
X99173907Y-77360345D01*
X99204500Y-77355500D01*
X101050993Y-77355500D01*
X101051000Y-77355500D01*
X101083144Y-77352970D01*
X101113737Y-77348125D01*
X101113748Y-77348123D01*
X101113793Y-77348116D01*
X101118281Y-77347353D01*
X101118280Y-77347353D01*
X101118287Y-77347352D01*
X101202383Y-77311408D01*
X101251883Y-77275444D01*
X101279628Y-77251203D01*
X101326536Y-77172693D01*
X101345443Y-77114502D01*
X101355500Y-77051000D01*
X101355500Y-73523751D01*
X101374407Y-73465560D01*
X101423907Y-73429596D01*
X101485093Y-73429596D01*
X101534593Y-73465560D01*
X101551598Y-73504437D01*
X101576026Y-73627249D01*
X101647677Y-73800229D01*
X101647681Y-73800238D01*
X101722065Y-73911559D01*
X101751698Y-73955908D01*
X101884092Y-74088302D01*
X101936713Y-74123462D01*
X102039761Y-74192318D01*
X102039767Y-74192320D01*
X102039769Y-74192322D01*
X102212749Y-74263973D01*
X102396384Y-74300500D01*
X102396385Y-74300500D01*
X102583615Y-74300500D01*
X102583616Y-74300500D01*
X102767251Y-74263973D01*
X102940231Y-74192322D01*
X102940234Y-74192319D01*
X102940238Y-74192318D01*
X102999079Y-74153001D01*
X103095908Y-74088302D01*
X103228302Y-73955908D01*
X103302282Y-73845187D01*
X103332318Y-73800238D01*
X103332319Y-73800234D01*
X103332322Y-73800231D01*
X103403973Y-73627251D01*
X103440500Y-73443616D01*
X103440500Y-72256384D01*
X103403973Y-72072749D01*
X103332322Y-71899769D01*
X103332320Y-71899767D01*
X103332318Y-71899761D01*
X103272649Y-71810463D01*
X103228302Y-71744092D01*
X103095908Y-71611698D01*
X103051559Y-71582065D01*
X102940238Y-71507681D01*
X102940229Y-71507677D01*
X102767249Y-71436026D01*
X102583618Y-71399500D01*
X102583616Y-71399500D01*
X102396384Y-71399500D01*
X102396381Y-71399500D01*
X102212750Y-71436026D01*
X102039770Y-71507677D01*
X102039761Y-71507681D01*
X101884092Y-71611698D01*
X101884088Y-71611701D01*
X101751701Y-71744088D01*
X101751698Y-71744092D01*
X101647681Y-71899761D01*
X101647677Y-71899770D01*
X101576026Y-72072750D01*
X101551598Y-72195562D01*
X101521701Y-72248946D01*
X101466136Y-72274562D01*
X101406126Y-72262625D01*
X101364594Y-72217695D01*
X101355500Y-72176248D01*
X101355500Y-70449006D01*
X101354582Y-70437340D01*
X101352970Y-70416856D01*
X101348125Y-70386263D01*
X101348116Y-70386206D01*
X101346375Y-70375957D01*
X101348435Y-70375606D01*
X101349906Y-70323377D01*
X101387248Y-70274908D01*
X101443162Y-70257607D01*
X127345500Y-70257607D01*
X127403691Y-70276514D01*
G37*
%TD.AperFunction*%
%TD*%
M02*
