G04 EasyEDA Pro v1.9.28, 2023-01-14 19:19:00*
G04 Gerber Generator version 0.3*%TF.GenerationSoftware,KiCad,Pcbnew,8.0.1*%
%TF.CreationDate,2024-10-05T18:53:12+08:00*%
%TF.ProjectId,TPS54331_EVA_Board,54505335-3433-4333-915f-4556415f426f,rev?*%
%TF.SameCoordinates,Original*%
%TF.FileFunction,Soldermask,Top*%
%TF.FilePolarity,Negative*%
%FSLAX46Y46*%
G04 Gerber Fmt 4.6, Leading zero omitted, Abs format (unit mm)*
G04 Created by KiCad (PCBNEW 8.0.1) date 2024-10-05 18:53:12*
%MOMM*%
%LPD*%
G01*
G04 APERTURE LIST*
G04 Aperture macros list*
%AMRoundRect*
0 Rectangle with rounded corners*
0 $1 Rounding radius*
0 $2 $3 $4 $5 $6 $7 $8 $9 X,Y pos of 4 corners*
0 Add a 4 corners polygon primitive as box body*
4,1,4,$2,$3,$4,$5,$6,$7,$8,$9,$2,$3,0*
0 Add four circle primitives for the rounded corners*
1,1,$1+$1,$2,$3*
1,1,$1+$1,$4,$5*
1,1,$1+$1,$6,$7*
1,1,$1+$1,$8,$9*
0 Add four rect primitives between the rounded corners*
20,1,$1+$1,$2,$3,$4,$5,0*
20,1,$1+$1,$4,$5,$6,$7,0*
20,1,$1+$1,$6,$7,$8,$9,0*
20,1,$1+$1,$8,$9,$2,$3,0*%
G04 Aperture macros list end*
%ADD10RoundRect,0.225000X-0.250000X0.225000X-0.250000X-0.225000X0.250000X-0.225000X0.250000X0.225000X0*%
%ADD11R,1.550000X2.200000*%
%ADD12R,1.400000X4.200000*%
%ADD13RoundRect,0.250000X-0.650000X0.325000X-0.650000X-0.325000X0.650000X-0.325000X0.650000X0.325000X0*%
%ADD14RoundRect,0.225000X0.250000X-0.225000X0.250000X0.225000X-0.250000X0.225000X-0.250000X-0.225000X0*%
%ADD15R,2.200000X1.550000*%
%ADD16RoundRect,0.250000X0.650000X-0.325000X0.650000X0.325000X-0.650000X0.325000X-0.650000X-0.325000X0*%
%ADD17RoundRect,0.225000X-0.225000X-0.250000X0.225000X-0.250000X0.225000X0.250000X-0.225000X0.250000X0*%
%ADD18RoundRect,0.750000X-0.750000X-1.750000X0.750000X-1.750000X0.750000X1.750000X-0.750000X1.750000X0*%
%ADD19O,1.500000X2.500000*%
%ADD20R,1.525000X0.650000*%
%ADD21RoundRect,0.200000X-0.200000X-0.275000X0.200000X-0.275000X0.200000X0.275000X-0.200000X0.275000X0*%
%ADD22RoundRect,0.200000X0.275000X-0.200000X0.275000X0.200000X-0.275000X0.200000X-0.275000X-0.200000X0*%
%ADD23RoundRect,0.218750X0.218750X0.256250X-0.218750X0.256250X-0.218750X-0.256250X0.218750X-0.256250X0*%
%ADD24RoundRect,0.200000X-0.275000X0.200000X-0.275000X-0.200000X0.275000X-0.200000X0.275000X0.200000X0*%
G04 APERTURE END LIST*
D10*
%TO.C,C1*%
X114050000Y-84500000D03*
X114050000Y-86050000D03*
%TD*%
D11*
%TO.C,D1*%
X97500000Y-83850000D03*
X97500000Y-79750000D03*
%TD*%
D12*
%TO.C,L2*%
X115750000Y-77050000D03*
X119450000Y-77050000D03*
%TD*%
D13*
%TO.C,C12*%
X102600000Y-83000000D03*
X102600000Y-85950000D03*
%TD*%
D10*
%TO.C,C2*%
X115650000Y-84500000D03*
X115650000Y-86050000D03*
%TD*%
D14*
%TO.C,C11*%
X107650000Y-86050000D03*
X107650000Y-84500000D03*
%TD*%
D15*
%TO.C,D3*%
X115550000Y-81750000D03*
X119650000Y-81750000D03*
%TD*%
D13*
%TO.C,C14*%
X100300000Y-83000000D03*
X100300000Y-85950000D03*
%TD*%
D16*
%TO.C,C3*%
X102600000Y-81355000D03*
X102600000Y-78405000D03*
%TD*%
D17*
%TO.C,C10*%
X108775000Y-75100000D03*
X110325000Y-75100000D03*
%TD*%
D16*
%TO.C,C13*%
X100300000Y-81355000D03*
X100300000Y-78405000D03*
%TD*%
D18*
%TO.C,J1*%
X93100000Y-73000000D03*
X93100000Y-85900000D03*
%TD*%
D19*
%TO.C,S1*%
X102490000Y-72850000D03*
X99950000Y-72850000D03*
X97410000Y-72850000D03*
%TD*%
D13*
%TO.C,C17*%
X125850000Y-81600000D03*
X125850000Y-84550000D03*
%TD*%
D20*
%TO.C,IC2*%
X106788000Y-77145000D03*
X106788000Y-78415000D03*
X106788000Y-79685000D03*
X106788000Y-80955000D03*
X112212000Y-80955000D03*
X112212000Y-79685000D03*
X112212000Y-78415000D03*
X112212000Y-77145000D03*
%TD*%
D21*
%TO.C,R6*%
X122387500Y-86850000D03*
X124037500Y-86850000D03*
%TD*%
%TO.C,R3*%
X104425000Y-84530000D03*
X106075000Y-84530000D03*
%TD*%
D16*
%TO.C,C16*%
X123550000Y-79950000D03*
X123550000Y-77000000D03*
%TD*%
D22*
%TO.C,R5*%
X112450000Y-86100000D03*
X112450000Y-84450000D03*
%TD*%
D16*
%TO.C,C18*%
X125850000Y-79950000D03*
X125850000Y-77000000D03*
%TD*%
D21*
%TO.C,R4*%
X104425000Y-86030000D03*
X106075000Y-86030000D03*
%TD*%
D18*
%TO.C,J2*%
X129600000Y-73000000D03*
X129600000Y-85900000D03*
%TD*%
D13*
%TO.C,C15*%
X123550000Y-81600000D03*
X123550000Y-84550000D03*
%TD*%
D22*
%TO.C,R1*%
X109250000Y-86100000D03*
X109250000Y-84450000D03*
%TD*%
D23*
%TO.C,D2*%
X126975000Y-86850000D03*
X125400000Y-86850000D03*
%TD*%
D24*
%TO.C,R2*%
X110850000Y-84450000D03*
X110850000Y-86100000D03*
%TD*%
M02*
