M48
; DRILL file {KiCad 8.0.1} date 2024-10-05T18:53:15+0800
; FORMAT={-:-/ absolute / inch / decimal}
; #@! TF.CreationDate,2024-10-05T18:53:15+08:00
; #@! TF.GenerationSoftware,Kicad,Pcbnew,8.0.1
; #@! TF.FileFunction,Plated,1,2,PTH
FMAT,2
INCH
; #@! TA.AperFunction,Plated,PTH,ViaDrill
T1C0.0098
; #@! TA.AperFunction,Plated,PTH,ComponentDrill
T2C0.0354
%
G90
G05
T1
X3.626Y-2.8071
X3.626Y-2.8268
X3.626Y-2.8465
X3.626Y-2.8661
X3.626Y-2.8858
X3.626Y-2.9055
X3.626Y-2.9252
X3.626Y-2.9449
X3.626Y-3.313
X3.626Y-3.3327
X3.626Y-3.3524
X3.626Y-3.372
X3.626Y-3.3917
X3.626Y-3.4114
X3.626Y-3.4311
X3.626Y-3.4508
X3.6457Y-2.8071
X3.6457Y-2.8268
X3.6457Y-2.8465
X3.6457Y-2.8661
X3.6457Y-2.8858
X3.6457Y-2.9055
X3.6457Y-2.9252
X3.6457Y-2.9449
X3.6457Y-3.313
X3.6457Y-3.3327
X3.6457Y-3.3524
X3.6457Y-3.372
X3.6457Y-3.3917
X3.6457Y-3.4114
X3.6457Y-3.4311
X3.6457Y-3.4508
X3.6654Y-2.8071
X3.6654Y-2.8268
X3.6654Y-2.8465
X3.6654Y-2.8661
X3.6654Y-2.8858
X3.6654Y-2.9055
X3.6654Y-2.9252
X3.6654Y-2.9449
X3.6654Y-3.313
X3.6654Y-3.3327
X3.6654Y-3.3524
X3.6654Y-3.372
X3.6654Y-3.3917
X3.6654Y-3.4114
X3.6654Y-3.4311
X3.6654Y-3.4508
X3.685Y-2.8071
X3.685Y-2.8268
X3.685Y-2.8465
X3.685Y-2.8661
X3.685Y-2.8858
X3.685Y-2.9055
X3.685Y-2.9252
X3.685Y-2.9449
X3.685Y-3.313
X3.685Y-3.3327
X3.685Y-3.3524
X3.685Y-3.372
X3.685Y-3.3917
X3.685Y-3.4114
X3.685Y-3.4311
X3.685Y-3.4508
X3.7047Y-2.8071
X3.7047Y-2.8268
X3.7047Y-2.8465
X3.7047Y-2.8661
X3.7047Y-2.8858
X3.7047Y-2.9055
X3.7047Y-2.9252
X3.7047Y-2.9449
X3.7047Y-3.313
X3.7047Y-3.3327
X3.7047Y-3.3524
X3.7047Y-3.372
X3.7047Y-3.3917
X3.7047Y-3.4114
X3.7047Y-3.4311
X3.7047Y-3.4508
X4.2815Y-3.0728
X4.2815Y-3.0925
X4.2815Y-3.1122
X4.2815Y-3.1319
X4.2815Y-3.1516
X4.3012Y-3.0728
X4.3012Y-3.0925
X4.3012Y-3.1122
X4.3012Y-3.1319
X4.3012Y-3.1516
X4.3209Y-3.0728
X4.3209Y-3.0925
X4.3209Y-3.1122
X4.3209Y-3.1319
X4.3209Y-3.1516
X4.3406Y-3.0728
X4.3406Y-3.0925
X4.3406Y-3.1122
X4.3406Y-3.1319
X4.3406Y-3.1516
X4.6634Y-3.3287
X4.6634Y-3.3563
X4.6634Y-3.3819
X4.6909Y-3.3287
X4.6909Y-3.3563
X4.6909Y-3.3819
X4.7185Y-3.3287
X4.7185Y-3.3563
X4.7185Y-3.3819
X4.872Y-2.9035
X4.872Y-2.9232
X4.872Y-2.9429
X4.872Y-2.9626
X4.8917Y-2.9035
X4.8917Y-2.9232
X4.8917Y-2.9429
X4.8917Y-2.9626
X4.9114Y-2.9035
X4.9114Y-2.9232
X4.9114Y-2.9429
X4.9114Y-2.9626
X4.9311Y-2.9035
X4.9311Y-2.9232
X4.9311Y-2.9429
X4.9311Y-2.9626
X4.9508Y-2.9035
X4.9508Y-2.9232
X4.9508Y-2.9429
X4.9508Y-2.9626
X5.063Y-2.8071
X5.063Y-2.8268
X5.063Y-2.8465
X5.063Y-2.8661
X5.063Y-2.8858
X5.063Y-2.9055
X5.063Y-2.9252
X5.063Y-2.9449
X5.065Y-3.313
X5.065Y-3.3327
X5.065Y-3.3524
X5.065Y-3.372
X5.065Y-3.3917
X5.065Y-3.4114
X5.065Y-3.4311
X5.065Y-3.4508
X5.0827Y-2.8071
X5.0827Y-2.8268
X5.0827Y-2.8465
X5.0827Y-2.8661
X5.0827Y-2.8858
X5.0827Y-2.9055
X5.0827Y-2.9252
X5.0827Y-2.9449
X5.0846Y-3.313
X5.0846Y-3.3327
X5.0846Y-3.3524
X5.0846Y-3.372
X5.0846Y-3.3917
X5.0846Y-3.4114
X5.0846Y-3.4311
X5.0846Y-3.4508
X5.1024Y-2.8071
X5.1024Y-2.8268
X5.1024Y-2.8465
X5.1024Y-2.8661
X5.1024Y-2.8858
X5.1024Y-2.9055
X5.1024Y-2.9252
X5.1024Y-2.9449
X5.1043Y-3.313
X5.1043Y-3.3327
X5.1043Y-3.3524
X5.1043Y-3.372
X5.1043Y-3.3917
X5.1043Y-3.4114
X5.1043Y-3.4311
X5.1043Y-3.4508
X5.122Y-2.8071
X5.122Y-2.8268
X5.122Y-2.8465
X5.122Y-2.8661
X5.122Y-2.8858
X5.122Y-2.9055
X5.122Y-2.9252
X5.122Y-2.9449
X5.124Y-3.313
X5.124Y-3.3327
X5.124Y-3.3524
X5.124Y-3.372
X5.124Y-3.3917
X5.124Y-3.4114
X5.124Y-3.4311
X5.124Y-3.4508
X5.1417Y-2.8071
X5.1417Y-2.8268
X5.1417Y-2.8465
X5.1417Y-2.8661
X5.1417Y-2.8858
X5.1417Y-2.9055
X5.1417Y-2.9252
X5.1417Y-2.9449
X5.1437Y-3.313
X5.1437Y-3.3327
X5.1437Y-3.3524
X5.1437Y-3.372
X5.1437Y-3.3917
X5.1437Y-3.4114
X5.1437Y-3.4311
X5.1437Y-3.4508
T2
G00X3.835Y-2.8898
M15
G01X3.835Y-2.8465
M16
G05
G00X3.935Y-2.8898
M15
G01X3.935Y-2.8465
M16
G05
G00X4.035Y-2.8898
M15
G01X4.035Y-2.8465
M16
G05
M30
